<svg width="1920" height="1080" viewBox="0 0 1920 1080" xmlns="http://www.w3.org/2000/svg"><rect width="1920" height="1080" fill="#b5b5b5"/><path d="M 0,1080 C 0,1080 0,180 0,180 C 209.28571428571428,144.96428571428572 418.57142857142856,109.92857142857142 541,132 C 663.4285714285714,154.07142857142858 699,233.25 878,239 C 1057,244.75 1379.4285714285713,177.07142857142858 1577,155 C 1774.5714285714287,132.92857142857142 1847.2857142857142,156.46428571428572 1920,180 C 1920,180 1920,1080 1920,1080 Z" fill="#676767" opacity="0.09999999999999999"/><path d="M 0,1080 C 0,1080 0,360 0,360 C 135.78571428571428,366.57142857142856 271.57142857142856,373.14285714285717 432,363 C 592.4285714285714,352.85714285714283 777.5,326 951,340 C 1124.5,354 1286.4285714285713,408.85714285714283 1446,419 C 1605.5714285714287,429.14285714285717 1762.7857142857142,394.57142857142856 1920,360 C 1920,360 1920,1080 1920,1080 Z" fill="#676767" opacity="0.19999999999999998"/><path d="M 0,1080 C 0,1080 0,540 0,540 C 81.89285714285714,572.25 163.78571428571428,604.5 305,601 C 446.2142857142857,597.5 646.75,558.25 892,530 C 1137.25,501.75000000000006 1427.2142857142856,484.5 1606,488 C 1784.7857142857144,491.5 1852.3928571428573,515.75 1920,540 C 1920,540 1920,1080 1920,1080 Z" fill="#676767" opacity="0.3"/><path d="M 0,1080 C 0,1080 0,720 0,720 C 154.46428571428572,753.6785714285714 308.92857142857144,787.3571428571429 475,786 C 641.0714285714286,784.6428571428571 818.75,748.25 958,737 C 1097.25,725.75 1198.0714285714287,739.6428571428572 1352,741 C 1505.9285714285713,742.3571428571428 1712.9642857142858,731.1785714285713 1920,720 C 1920,720 1920,1080 1920,1080 Z" fill="#676767" opacity="0.39999999999999997"/><path d="M 0,1080 C 0,1080 0,900 0,900 C 160.67857142857144,935.3214285714286 321.3571428571429,970.6428571428571 495,957 C 668.6428571428571,943.3571428571429 855.25,880.75 1020,870 C 1184.75,859.25 1327.642857142857,900.3571428571429 1474,914 C 1620.357142857143,927.6428571428571 1770.1785714285716,913.8214285714286 1920,900 C 1920,900 1920,1080 1920,1080 Z" fill="#676767" opacity="0.49999999999999994"/></svg>